<svg xmlns="http://www.w3.org/2000/svg" viewBox="0 0 512 512">
  <!-- Background - Coral/Orange from app theme -->
  <rect width="512" height="512" fill="#c56644" rx="80"/>

  <!-- Barbell -->
  <g fill="white">
    <!-- Left collar (small separator) -->
    <rect x="115" y="240" width="12" height="32"/>

    <!-- Left weight plates (5 plates from largest to smallest) -->
    <rect x="75" y="150" width="40" height="212" rx="12"/>
    <rect x="62" y="160" width="13" height="192" rx="10"/>
    <rect x="52" y="175" width="10" height="162" rx="8"/>
    <rect x="45" y="190" width="7" height="132" rx="6"/>
    <rect x="40" y="205" width="5" height="102" rx="4"/>

    <!-- Center bar (straight, no rounding) -->
    <rect x="127" y="242" width="258" height="28"/>

    <!-- Right collar (small separator) -->
    <rect x="385" y="240" width="12" height="32"/>

    <!-- Right weight plates (5 plates from largest to smallest) -->
    <rect x="397" y="150" width="40" height="212" rx="12"/>
    <rect x="437" y="160" width="13" height="192" rx="10"/>
    <rect x="450" y="175" width="10" height="162" rx="8"/>
    <rect x="460" y="190" width="7" height="132" rx="6"/>
    <rect x="467" y="205" width="5" height="102" rx="4"/>
  </g>
</svg>
